<svg width="500" height="255" viewBox="0 0 500 255" fill="none" xmlns="http://www.w3.org/2000/svg">
<g clip-path="url(#clip0_101_432)">
<rect width="500" height="255" fill="#2C3236"/>
<path d="M471 1.5H447.5V0.5H499.5V8.5H499H498.5V9V26V26.5H499H499.5V36.5H499H498.5V37V51V51.5H499H499.5V60.5H471.5V55V54.5H471H468.5V51.5H480H480.5V51V38V37.5H480H468.5V35.5H471H471.5V35V29V28.5H471H468.5V25.5H480H480.5V25V10V9.5H480H468.5V6.5H471H471.5V6V2V1.5H471Z" fill="#3F4247" stroke="#505358"/>
<rect x="447.5" y="3.5" width="20" height="56" fill="#2B4A60" stroke="#2E3742"/>
<g opacity="0.8">
<path d="M456.359 24.9262C456.142 24.9262 455.933 25.0144 455.779 25.1713C455.625 25.3282 455.539 25.541 455.539 25.7629V29.1098H452.258C452.04 29.1098 451.832 29.198 451.678 29.3549C451.524 29.5118 451.438 29.7246 451.438 29.9465V33.2934C451.438 33.5153 451.524 33.7281 451.678 33.885C451.832 34.042 452.04 34.1301 452.258 34.1301H455.539V37.477C455.539 37.6989 455.625 37.9117 455.779 38.0686C455.933 38.2256 456.142 38.3137 456.359 38.3137H459.641C459.858 38.3137 460.067 38.2256 460.221 38.0686C460.375 37.9117 460.461 37.6989 460.461 37.477V34.1301H463.742C463.96 34.1301 464.168 34.042 464.322 33.885C464.476 33.7281 464.562 33.5153 464.562 33.2934V29.9465C464.562 29.7246 464.476 29.5118 464.322 29.3549C464.168 29.198 463.96 29.1098 463.742 29.1098H460.461V25.7629C460.461 25.541 460.375 25.3282 460.221 25.1713C460.067 25.0144 459.858 24.9262 459.641 24.9262H456.359Z" fill="#75FB82"/>
</g>
<path d="M29 253.5H52.5V254.5H0.5V246.5H1H1.5V246V229V228.5H1H0.5L0.5 218.5H1H1.5V218V204V203.5H1H0.5V194.5H28.5V200V200.5H29H31.5V203.5H20H19.5V204V217V217.5H20H31.5V219.5H29H28.5V220V226V226.5H29H31.5V229.5H20H19.5V230V245V245.5H20H31.5V248.5H29H28.5V249V253V253.5H29Z" fill="#3F4247" stroke="#505358"/>
<rect x="52.5" y="251.5" width="20" height="56" transform="rotate(-180 52.5 251.5)" fill="#5D313D" stroke="#2E3742"/>
<g opacity="0.8">
<path d="M44.6406 230.834C44.8582 230.834 45.0668 230.746 45.2207 230.589C45.3745 230.432 45.4609 230.219 45.4609 229.997V226.65H48.7422C48.9597 226.65 49.1684 226.562 49.3222 226.405C49.4761 226.248 49.5625 226.035 49.5625 225.813V222.467C49.5625 222.245 49.4761 222.032 49.3222 221.875C49.1684 221.718 48.9597 221.63 48.7422 221.63H45.4609V218.283C45.4609 218.061 45.3745 217.848 45.2207 217.691C45.0668 217.534 44.8582 217.446 44.6406 217.446H41.3594C41.1418 217.446 40.9332 217.534 40.7793 217.691C40.6255 217.848 40.5391 218.061 40.5391 218.283V221.63H37.2578C37.0403 221.63 36.8316 221.718 36.6778 221.875C36.5239 222.032 36.4375 222.245 36.4375 222.467V225.813C36.4375 226.035 36.5239 226.248 36.6778 226.405C36.8316 226.562 37.0403 226.65 37.2578 226.65H40.5391V229.997C40.5391 230.219 40.6255 230.432 40.7793 230.589C40.9332 230.746 41.1418 230.834 41.3594 230.834H44.6406Z" fill="#75FB82"/>
</g>
<path d="M423 143L457 162L482 144V111L457 93L423 113V143Z" fill="#2B4A60"/>
<path d="M437 136V119H444V136H437Z" fill="#2B7BCC" stroke="#2B7BCC"/>
<path d="M465.722 123.562L451 115.062L454.5 109L469.222 117.5L465.722 123.562Z" fill="#2B7BCC" stroke="#2B7BCC"/>
<path d="M451 140.5L465.722 132L469.222 138.062L454.5 146.562L451 140.5Z" fill="#2B7BCC" stroke="#2B7BCC"/>
<path d="M442 117V118.5V136.5V138L449 143L451.5 142.5L468 133V123L451.5 113L449 112L442 117Z" fill="#AFB3BA"/>
<path d="M446 134V122L450 119H453L463 126V130L453 137H450L446 134Z" fill="#332A28" stroke="#343139"/>
<path d="M305 0H443V3H387H375H325H305V0Z" fill="#505358"/>
<path d="M447 0H443V62H447V0Z" fill="#505358"/>
<path d="M366 82L341 48V45H325V22H305V19H327V20H388V23H328.5V42H389V45H355V48L376 75.5H409.5L409 28H421V79L417 82H409H366Z" fill="#505358"/>
<path opacity="0.7" d="M375 3V20H388V3H375Z" fill="#505358"/>
<path d="M305 3V20H375V3H305Z" fill="#3F4247"/>
<path d="M325 20V3" stroke="#505358"/>
<path d="M388 3V20V45H355V48L376 75.5H409.5L409 28H421V62H443V3H388Z" fill="#3F4247"/>
<path d="M318.757 9.06952H313.456V7.46735L311.229 9.06955V10.3029L313.563 9.54601V10.3465H318.757V9.06955V9.06952ZM318.757 10.6443H313.271V9.95323L311.229 10.6154V11.8961L313.271 12.5583V11.8673H318.757V10.6443ZM318.757 12.1651H313.563V12.9655L311.229 12.2087V13.3764L313.456 14.9785V13.3764H318.757V12.1651V12.1651Z" fill="#505358"/>
<path d="M328.5 23.5H356.5V41.5H328.5V23.5Z" fill="#485150" stroke="#626B65"/>
<path opacity="0.7" d="M388 23H357V42H388V23Z" fill="#505358"/>
<path d="M391 47.5H391.5V47V23.5H405.5V72.5H377.244L359.5 49.8276V47.5H391Z" fill="#485150" stroke="#626B65"/>
<path d="M373.5 19.5H358.5V3.5H373.5V19.5Z" fill="#485150" stroke="#626B65"/>
<path d="M359 53L371 69L361.5 76L349.829 60L359 53Z" fill="#141414"/>
<rect x="366.5" y="86.5" width="46" height="80" rx="5.5" fill="#485150" stroke="#626B65"/>
<g clip-path="url(#clip1_101_432)">
<path d="M288.672 24.8044L307.273 24.8044L316.574 40.9132L307.273 57.022L288.672 57.022L279.372 40.9132L288.672 24.8044Z" fill="url(#paint0_radial_101_432)" stroke="#626B65"/>
</g>
<g clip-path="url(#clip2_101_432)">
<path d="M192.672 197.804L211.273 197.804L220.574 213.913L211.273 230.022L192.672 230.022L183.372 213.913L192.672 197.804Z" fill="url(#paint1_radial_101_432)" stroke="#626B65"/>
</g>
<path d="M485.5 93.5H499.5V173.5H485.5V93.5Z" stroke="#505358"/>
<rect x="449" y="218" width="35" height="35" fill="#464749"/>
<rect x="448" y="217" width="37" height="37" stroke="#2B4A60" stroke-opacity="0.4" stroke-width="2"/>
<path d="M470.191 233.572V235.857H462.77V233.572H470.191ZM463.639 227.781V242H460.709V227.781H463.639ZM472.281 227.781V242H469.361V227.781H472.281Z" fill="#2A8BCE" fill-opacity="0.4"/>
<rect x="476" y="178" width="22" height="34" fill="#2B4A60" fill-opacity="0.4"/>
<path d="M498.5 178V177.5H498H476.5V174.5H499.5V215.5H476.5V212.5H498H498.5V212V178Z" fill="#D9D9D9"/>
<path d="M498.5 178V177.5H498H476.5V174.5H499.5V215.5H476.5V212.5H498H498.5V212V178Z" fill="#505358"/>
<path d="M498.5 178V177.5H498H476.5V174.5H499.5V215.5H476.5V212.5H498H498.5V212V178Z" stroke="#505358"/>
<path d="M491 188.5H495.5V202.5H491H490.5V203V204.793L489.793 205.5H469.118L465.5 203.691V201.207L467.207 199.5H472H472.5V199V192V191.5H472H467.207L465.5 189.793V187.309L469.118 185.5H489.793L490.5 186.207V188V188.5H491Z" fill="#2B7BCC" stroke="#2B4A60"/>
<path d="M499 61.5H478.5V60.5H499.5V61.5H499ZM499.5 91.5V92.5H478.5V91.5H499H499.5Z" stroke="#505358"/>
<rect x="472.5" y="62.5" width="23" height="28" fill="#2B4A60" fill-opacity="0.4" stroke="#2B4A60"/>
<path d="M472 73V79H479V78H483.5H488V79V82H500V79H502V73H500V70H488V73V74H479V73H472Z" fill="#2B7BCC" stroke="#2B4A60"/>
<path d="M77 112L43 93L18 111V144L43 162L77 142V112Z" fill="#5D313D"/>
<path d="M63 119V136H56V119H63Z" fill="#D83834" stroke="#D83834"/>
<path d="M34.2776 131.438L49 139.938L45.5 146L30.7776 137.5L34.2776 131.438Z" fill="#D83834" stroke="#D83834"/>
<path d="M49 114.5L34.2776 123L30.7776 116.938L45.5 108.438L49 114.5Z" fill="#D83834" stroke="#D83834"/>
<path d="M58 138V136.5V118.5V117L51 112L48.5 112.5L32 122V132L48.5 142L51 143L58 138Z" fill="#AFB3BA"/>
<path d="M54 121V133L50 136H47L37 129V125L47 118H50L54 121Z" fill="#332A28" stroke="#343139"/>
<path d="M14.5 161.5H0.5V81.5H14.5V161.5Z" stroke="#505358"/>
<rect x="51" y="37" width="35" height="35" transform="rotate(-180 51 37)" fill="#464749"/>
<rect x="52" y="38" width="37" height="37" transform="rotate(-180 52 38)" stroke="#5D313D" stroke-opacity="0.4" stroke-width="2"/>
<path d="M29.8086 21.4277V19.1426H37.2305V21.4277H29.8086ZM36.3613 27.2188V13H39.291V27.2188H36.3613ZM27.7188 27.2188V13H30.6387V27.2188H27.7188Z" fill="#D83834" fill-opacity="0.4"/>
<rect x="24" y="77" width="22" height="34" transform="rotate(-180 24 77)" fill="#5D313D" fill-opacity="0.4"/>
<path d="M1.5 77V77.5H2H23.5V80.5H0.5V39.5H23.5V42.5H2H1.5V43V77Z" fill="#D9D9D9"/>
<path d="M1.5 77V77.5H2H23.5V80.5H0.5V39.5H23.5V42.5H2H1.5V43V77Z" fill="#505358"/>
<path d="M1.5 77V77.5H2H23.5V80.5H0.5V39.5H23.5V42.5H2H1.5V43V77Z" stroke="#505358"/>
<path d="M9 66.5H4.5V52.5H9H9.5V52V50.2071L10.2071 49.5H30.882L34.5 51.309V53.7929L32.7929 55.5H28H27.5V56V63V63.5H28H32.7929L34.5 65.2071V67.691L30.882 69.5H10.2071L9.5 68.7929V67V66.5H9Z" fill="#D83834" stroke="#5D313D"/>
<path d="M1 193.5H21.5V194.5H0.5V193.5H1ZM0.5 163.5V162.5H21.5V163.5H1H0.5Z" stroke="#505358"/>
<rect x="27.5" y="192.5" width="23" height="28" transform="rotate(-180 27.5 192.5)" fill="#5D313D" fill-opacity="0.4" stroke="#5D313D"/>
<path d="M28 182V176H21V177H16.5H12V176V173H0V176H-2V182H0V185H12V182V181H21V182H28Z" fill="#D83834" stroke="#5D313D"/>
<path d="M204 237V253H443V228H411.5V179H374.5L333 236H285L336 163V115L334 110H330.5L312 124H308V154.5L252 237H204Z" fill="#3F4247"/>
<path d="M443 253.5H443.5V253V194.5H446.5V254.5H204.5V253.5H443Z" fill="#505358" stroke="#505358"/>
<path d="M276.669 88.0787L283.915 81.7388L311.5 120.161V156.841L265.934 221.227L264.354 219.646L263.934 219.227L263.592 219.712L251.741 236.5H204.5V235.5H249H249.25L249.4 235.3L261.4 219.3L261.66 218.953L261.354 218.646L258.653 215.946L303.407 153.291L303.5 153.16V153V126V125.84L303.408 125.71L276.669 88.0787Z" fill="#505358" stroke="#505358"/>
<path d="M286.742 235.5H284.5V234.158L334.409 163.288L334.5 163.158V163V115V114.843L334.411 114.715L309.701 79.1334L311.869 77.6882L336.5 113.157V164.825L332.61 169.688L332.5 169.825V170V179.849L320.732 197.5H314H313.742L313.592 197.71L286.742 235.5Z" fill="#505358" stroke="#505358"/>
<path d="M374 181.5H373.742L373.592 181.711L334.742 236.5H325.5V235.127L337.421 213.273L369.248 171.5H416.833L420.5 174.25V227.5H409.5V182V181.5H409H374Z" fill="#505358" stroke="#505358"/>
<rect opacity="0.7" x="421" y="194" width="22" height="34" fill="#505358"/>
<path opacity="0.7" d="M303 213H337L325 236H287L303 213Z" fill="#505358"/>
<path opacity="0.7" d="M283 197L301 210.5L284 235L266 222L283 197Z" fill="#505358"/>
<path opacity="0.7" d="M309 79L330.5 110L312 124L291 91L309 79Z" fill="#505358"/>
<path d="M328 115L316 123V156L287 196V198L298 206H300L331 163V115H328Z" fill="#485150" stroke="#626B65"/>
<path d="M407 226H346V224L375 184H407V226Z" fill="#485150" stroke="#626B65"/>
<rect x="263.5" y="237.5" width="14" height="15" fill="#485150" stroke="#626B65"/>
<path d="M366.033 193.114L353.033 211.614L343.533 204.114L357.033 186.114L366.033 193.114Z" fill="#141414"/>
<path d="M195 255H57V252H113H125H175H195V255Z" fill="#505358"/>
<path d="M53 255H57V193H53V255Z" fill="#505358"/>
<path d="M134 173L159 207V210H175V233H195V236H173V235H112V232H171.5V213H111V210H145V207L124 179.5H90.5L91 227H79V176L83 173H91H134Z" fill="#505358"/>
<path opacity="0.7" d="M125 252V235H112V252H125Z" fill="#505358"/>
<path d="M195 252V235H125V252H195Z" fill="#3F4247"/>
<path d="M175 235V252" stroke="#505358"/>
<path d="M112 252V235V210H145V207L124 179.5H90.5L91 227H79V193H57V252H112Z" fill="#3F4247"/>
<path d="M181.243 245.93H186.544V247.533L188.771 245.93V244.697L186.437 245.454V244.653H181.243V245.93V245.93ZM181.243 244.356H186.729V245.047L188.771 244.385V243.104L186.729 242.442V243.133H181.243V244.356ZM181.243 242.835H186.437V242.034L188.771 242.791V241.624L186.544 240.021V241.624H181.243V242.835V242.835Z" fill="#505358"/>
<path d="M171.5 231.5H143.5V213.5H171.5V231.5Z" fill="#485150" stroke="#626B65"/>
<path opacity="0.7" d="M112 232H143V213H112V232Z" fill="#505358"/>
<path d="M109 207.5H108.5V208V231.5H94.5V182.5H122.756L140.5 205.172V207.5H109Z" fill="#485150" stroke="#626B65"/>
<path d="M126.5 235.5H141.5V251.5H126.5V235.5Z" fill="#485150" stroke="#626B65"/>
<path d="M141 202L129 186L138.5 179L150.171 195L141 202Z" fill="#141414"/>
<rect x="133.5" y="168.5" width="46" height="80" rx="5.5" transform="rotate(-180 133.5 168.5)" fill="#485150" stroke="#626B65"/>
<path d="M296 18V2L57 2V27H88.5L88.5 76L125.5 76L167 19H215L164 92V140L166 145H169.5L188 131H192V100.5L248 18H296Z" fill="#3F4247"/>
<path d="M57 1.5H56.5V2V60.5H53.5V0.5L295.5 0.5V1.5L57 1.5Z" fill="#505358" stroke="#505358"/>
<path d="M223.331 166.921L216.085 173.261L188.5 134.839V98.159L234.066 33.7728L235.646 35.3535L236.066 35.7733L236.408 35.2883L248.259 18.5H295.5V19.5H251H250.75L250.6 19.7L238.6 35.7L238.34 36.0469L238.646 36.3535L241.347 39.054L196.593 101.709L196.5 101.84V102V129V129.16L196.592 129.29L223.331 166.921Z" fill="#505358" stroke="#505358"/>
<path d="M213.258 19.5H215.5V20.8416L165.591 91.7121L165.5 91.8416V92V140V140.157L165.589 140.285L190.299 175.867L188.131 177.312L163.5 141.843V90.1754L167.39 85.3123L167.5 85.1754V85V75.1514L179.268 57.5H186H186.258L186.408 57.2896L213.258 19.5Z" fill="#505358" stroke="#505358"/>
<path d="M126 73.5H126.258L126.408 73.2892L165.258 18.5H174.5V19.8725L162.579 41.7272L130.752 83.5L83.1667 83.5L79.5 80.75V27.5L90.5 27.5V73V73.5H91L126 73.5Z" fill="#505358" stroke="#505358"/>
<rect opacity="0.7" x="79" y="61" width="22" height="34" transform="rotate(-180 79 61)" fill="#505358"/>
<path opacity="0.7" d="M197 42L163 42L175 19L213 19L197 42Z" fill="#505358"/>
<path opacity="0.7" d="M217 58L199 44.5L216 20L234 33L217 58Z" fill="#505358"/>
<path opacity="0.7" d="M191 176L169.5 145L188 131L209 164L191 176Z" fill="#505358"/>
<path d="M172 140L184 132V99L213 59V57L202 49H200L169 92V140H172Z" fill="#485150" stroke="#626B65"/>
<path d="M93 29L154 29V31L125 71L93 71V29Z" fill="#485150" stroke="#626B65"/>
<rect x="236.5" y="17.5" width="14" height="15" transform="rotate(-180 236.5 17.5)" fill="#485150" stroke="#626B65"/>
<path d="M133.967 61.8863L146.967 43.3864L156.467 50.8864L142.967 68.8863L133.967 61.8863Z" fill="#141414"/>
<path opacity="0.7" d="M276.5 88.5L229 55.5L234.5 48L283 82.5L276.5 88.5Z" fill="#505358"/>
<path opacity="0.7" d="M223.5 166.5L271 199.907L265.5 207.5L217 172.574L223.5 166.5Z" fill="#505358"/>
</g>
<defs>
<radialGradient id="paint0_radial_101_432" cx="0" cy="0" r="1" gradientUnits="userSpaceOnUse" gradientTransform="translate(297.973 40.9132) rotate(120) scale(19.1782 16.6088)">
<stop offset="0.322917" stop-color="#346072"/>
<stop offset="1" stop-color="#626B65" stop-opacity="0.41"/>
</radialGradient>
<radialGradient id="paint1_radial_101_432" cx="0" cy="0" r="1" gradientUnits="userSpaceOnUse" gradientTransform="translate(201.973 213.913) rotate(120) scale(19.1782 16.6088)">
<stop offset="0.322917" stop-color="#5D313D"/>
<stop offset="1" stop-color="#626B65" stop-opacity="0.41"/>
</radialGradient>
<clipPath id="clip0_101_432">
<rect width="500" height="255" fill="white"/>
</clipPath>
<clipPath id="clip1_101_432">
<rect width="38" height="34" fill="white" transform="translate(279 24)"/>
</clipPath>
<clipPath id="clip2_101_432">
<rect width="38" height="34" fill="white" transform="translate(183 197)"/>
</clipPath>
</defs>
</svg>
